<svg version="1" xmlns="http://www.w3.org/2000/svg" width="1960" height="1960" viewBox="0 0 1470.000000 1470.000000"><path d="M1014.5 50.6c-2.2.2-9 .9-15.2 1.4-41.9 3.8-89.9 18.5-128.1 39.2-38.7 21-72.3 48.4-101.4 82.7-2.9 3.4-4 4.1-5.1 3.3-2.3-1.9-18.8-7.9-27.2-9.8-7.7-1.8-18.6-1.9-276-1.9-301.4 0-274.2-.7-294.9 7.6-35.8 14.3-59.2 41.4-69.8 80.9l-2.3 8.5-.3 481.5c-.2 361.3 0 483.7.8 490.4 2.8 20.8 11.9 41.9 24.8 57.6 15.7 19 35.7 31.7 60.5 38.5l5.7 1.6v17.3c0 13.9.4 18.8 2 25 3.1 12.2 8.2 20.9 18 30.7 9.5 9.6 17.3 14.4 29 18.1 7 2.1 9.2 2.3 31 2.3 26.6 0 29.3-.5 43.5-7.8 10.1-5.2 22.6-17.2 27.8-26.7 6.6-12.1 7.9-18.3 8.5-38.8l.4-18.2 114.7.2 114.6.3.6 19c.5 17.2.8 19.7 3.1 26.2 4.4 12.1 11.2 21.7 21.5 30.3 7.4 6.2 13.4 9.6 22.8 12.7 7.8 2.6 8.7 2.7 32 2.7 20.6.1 24.9-.2 30-1.8 22-6.8 40.4-24.3 47.1-44.9 2.4-7.3 2.7-10.3 3.3-27.6l.6-19.3 8.5-2.4c32.7-9.3 61.3-35 74-66.7 4.9-12.2 6.8-20.2 8-33.9.6-7.2 1-110.3 1-285.6V668.8l4.8 3.6c7.5 5.7 26.8 17.8 38.1 24 54.5 29.5 120.5 44.4 181.1 40.7 51-3 94.5-14.6 137.5-36.6 35.2-18 61-36.7 88.8-64.7 54.1-54.5 88.1-124.9 97.2-201.8 6.1-50.5.2-103.9-16.7-152.8-17.1-49.5-43.7-92-81.3-129.8-55.6-56-126.7-90.1-207-99.4-9.5-1.1-49.2-2.1-56-1.4zm52 46.9c60.2 7.8 105.9 26.7 153.5 63.3 10.6 8.3 37.4 34.9 46.4 46.2 43.3 54.7 65.6 118.3 65.6 187.5-.1 61.5-16.5 115-51.2 166.9-37.6 56-92.8 96.8-160 118.1-28.8 9.1-58.6 13-93.3 12.2-64-1.6-121.2-21.1-170.9-58.5-36.8-27.7-64.7-60.4-86.7-101.7l-4.9-9V534l-22.5.2-22.6.3 4.6 9.3c2.5 5.1 4.5 9.8 4.5 10.3s-113.2.9-294.5.9H140l.2-145.3.3-145.2 2.2-6.5c3.5-10.1 9.1-18.8 17.8-27.5 6.6-6.7 9.7-8.9 17.5-12.7 5.2-2.6 12.4-5.3 16-6 5.2-1 56.7-1.3 267.5-1.3 248.2 0 261.3.1 268 1.8 10.2 2.6 10.5 2.8 7.7 7.7l-2.3 4H765v41.5l7.6-14c37.3-68.2 96.3-117 171.9-141.8 18.1-6 41.3-10.7 64.5-13 10.6-1.1 46.6-.6 57.5.8zM236.5 599c.4.7 88.6 1 261.4 1h260.9l3.3 4.5c3.3 4.3 3.5 4.4 9.2 4.5h5.7v6.8c0 6 .3 7.1 2.5 9.2l2.5 2.4-.3 302.5c-.2 281.6-.3 303-1.9 308.1-5.9 18.9-20.3 35.9-37.4 44-13.3 6.3-2.5 5.9-194.4 6.5-96.5.3-215.8.2-265-.3-87.7-.8-89.6-.9-96-3-9.9-3.3-18.6-8.9-27.5-17.7-9.3-9.4-14.5-18.3-17.5-30.1-2-7.6-2-11.8-2-322.6V600h4.9c2.8 0 5.3-.5 5.6-1 .4-.6 15.8-1 43-1s42.6.4 43 1zm63.5 749.2c0 15.8-1.1 19.6-6.6 25.2-5.8 5.8-9.2 6.6-27.9 6.6-16 0-17.3-.1-21.5-2.4-5.9-3.1-10.5-9.2-11.9-15.6-1.2-5.5-1.5-26.3-.4-27.3.3-.4 15.9-.7 34.5-.7H300v14.2zm390 0c0 16.1-1.1 19.8-7.1 25.5-5.9 5.6-9 6.3-27.4 6.3-17.9 0-20.4-.5-26.3-5.5-6.1-5.1-7.5-9.4-8-24.2-.2-7.3-.2-13.9.2-14.8.5-1.3 5-1.5 34.6-1.5h34v14.2z"/><path d="M1026.2 143.3c-4.9 1.8-9.9 6.3-12.4 11-2 3.7-2.3 6.1-2.6 19.9-.2 8.7-.6 15.8-.8 15.8-.2 0-8.5-5.4-18.4-12-18.5-12.3-21.7-13.6-29.5-12.8-16.5 1.9-25.4 21.1-16.2 35 1.5 2.2 12.8 10.4 33.5 24.2l31.2 20.9v93.1l-39.7-39.5c-33.8-33.6-40.4-39.7-43.9-40.7-16.1-4.6-30.4 5.2-30.4 20.9.1 10.1 1 11.3 42.8 53.1l38.7 38.8H932l-46.5-.1-19-28.6c-10.4-15.8-20.3-30.2-21.9-32.1-5.3-6-13.7-8.8-21.8-7.1-13 2.8-21 17.3-16.5 29.9.7 1.9 6.3 11 12.5 20.2s11.2 17 11.2 17.2c0 .2-7.1.6-15.7.8-13.8.3-16.3.6-19.8 2.5-5.1 2.7-7.9 5.7-10.4 11.3-3.6 7.9-1.8 18.4 4.2 24.8 5.2 5.6 9 6.6 26 7 8.6.2 15.7.6 15.7.8 0 .2-5 8-11.2 17.2-6.2 9.2-11.8 18.3-12.5 20.2-4.5 12.6 3.5 27.1 16.5 29.9 8.1 1.7 16.5-1.1 21.8-7.1 1.6-1.9 11.5-16.3 21.9-32.1l19-28.6 46.5-.1h46.4l-39.1 39.3c-26.4 26.4-39.7 40.4-40.7 42.9-2 4.6-2.1 13.8-.2 18.2 2.1 5 7.2 10.2 11.8 12.1 5.3 2.1 13.4 2.1 18.4 0 2.8-1.1 15.5-13.2 43.2-40.8l39.2-39.2v93.2l-31.2 20.9c-20.7 13.8-32 22-33.5 24.2-9.2 13.9-.3 33.1 16.2 35 7.8.8 11-.5 29.5-12.8 9.9-6.6 18.2-12 18.4-12 .2 0 .6 7.1.8 15.7.3 13.8.6 16.3 2.6 20 7.5 14.3 26.9 16.6 37.3 4.4 5-5.7 5.9-9.8 5.9-26 0-7.7.2-14.1.5-14.1s8 5 17.2 11.1c19 12.8 21.4 13.9 28.3 13.9 15.4 0 26-14.3 21.6-29.2-2.2-7.6-4.9-9.8-38.8-32.3l-28.7-19-.1-46.4c0-25.5.2-46.2.4-46 .3.2 17.7 17.6 38.8 38.5 24.3 24.2 39.8 38.9 42.5 40.3 6.6 3.3 15.6 2.9 21.6-.8 10.4-6.7 14.1-19.7 8.5-30.5-.6-1.1-18.6-19.8-40.1-41.4l-39.1-39.2h93.1l19.8 29.7c10.8 16.4 20.7 30.9 21.9 32.1 5.9 6.6 18.2 8.7 26.1 4.5 8.3-4.4 12.5-11.4 12.5-20.8 0-6.8-.5-7.7-14.2-28.2-5.9-9-10.8-16.5-10.8-16.8 0-.3 6.1-.5 13.6-.5 16.2 0 20.9-1 26.5-5.8 5.3-4.6 7.9-10.1 7.9-17.2s-2.6-12.6-7.9-17.2c-5.6-4.8-10.3-5.8-26.5-5.8-7.5 0-13.6-.2-13.6-.5s4.9-7.8 10.8-16.8c13.7-20.5 14.2-21.4 14.2-28.2 0-9.4-4.2-16.4-12.5-20.8-7.9-4.2-20.2-2.1-26.1 4.5-1.2 1.2-11.1 15.7-21.9 32l-19.8 29.8h-93.2l39.2-39.3c21.5-21.5 39.9-40.8 40.9-42.7 2.3-4.7 2.3-14.3 0-19-2.5-4.8-6.4-8.8-10.9-11.1-4.8-2.5-13.9-2.7-19.3-.4-2.7 1.1-15.5 13.2-43.1 40.8l-39.3 39.1V292l.1-46.5 28.7-19c33.9-22.5 36.6-24.7 38.8-32.3 4.4-14.9-6.2-29.2-21.6-29.2-6.9 0-9.3 1.1-28.3 13.9-9.2 6.1-16.9 11.1-17.2 11.1-.3 0-.5-6.4-.5-14.1 0-7.9-.5-15.9-1.2-18-1.5-5.2-7.3-11.7-12.2-14-4.6-2.1-12.4-2.3-17.4-.6zM404 379v155h5V224h-5v155zM587 379v155h5V224h-5v155zM248.6 237c-6.3 4.1-6.5 5.4-6.6 38.5 0 33.5.2 34.8 6.9 39.2l3.4 2.3h62.6c60.3 0 62.7-.1 65.8-2 6.4-3.8 6.8-5.7 7.1-34 .2-14 .1-28.4-.3-32-.6-5.7-1.1-6.9-4.5-10.2l-3.8-3.8h-63.8c-61.6 0-64 .1-66.8 2zm132 5.5l2.4 3V306l-2.9 3.2-2.9 3.3H261.5l-.3-35.5c-.1-19.5 0-36.1.3-36.8.4-1 12.1-1.2 58.6-1l58.1.3 2.4 3z"/><path d="M274.1 251.9c-.8.5-1.1 1.6-.8 2.5.6 1.4 3.3 1.6 21.6 1.6 17.5 0 21-.2 21.5-1.5.3-.8-.3-1.9-1.4-2.5-2.3-1.2-38.9-1.3-40.9-.1zM324.2 253.7c.3 1.6 1.9 1.8 15.8 1.8s15.5-.2 15.8-1.8c.3-1.6-1-1.7-15.8-1.7s-16.1.1-15.8 1.7zM273.3 264.5c-1.1 3.1 1.3 3.6 16.3 3.3 14.1-.3 14.9-.4 14.9-2.3s-.8-2-15.3-2.3c-13.2-.2-15.3 0-15.9 1.3zM313.3 264.5c-.3.9-.1 2.1.4 2.6s9.2.8 20.9.7c19.1-.3 19.9-.4 19.9-2.3s-.8-2-20.3-2.3c-17.7-.2-20.3 0-20.9 1.3zM273.3 276.6c-1 2.6 1.7 3.4 11.7 3.4s12.7-.8 11.7-3.4c-.5-1.3-2.5-1.6-11.7-1.6s-11.2.3-11.7 1.6zM429.7 236.8c-1.5.9-3.6 3.5-4.7 5.8-1.9 3.7-2 6.2-2 33.5 0 32.8.2 34.2 6.9 38.6l3.4 2.3h62.6c60.3 0 62.7-.1 65.8-2 6.2-3.7 6.3-4.5 6.3-40.1v-32.1l-3.9-3.9-3.9-3.9h-63.8c-58.7.1-64.1.2-66.7 1.8zm131.9 5.7l2.4 3V306l-2.9 3.2-2.9 3.3H442.5l-.3-35.5c-.1-19.5 0-36.1.3-36.8.4-1 12.1-1.2 58.6-1l58.1.3 2.4 3z"/><path d="M454.2 253.7c.3 1.7 2.1 1.8 21.8 1.8 18.4 0 21.5-.2 21.5-1.5s-3.2-1.5-21.8-1.8c-20.5-.2-21.8-.1-21.5 1.5zM505.2 253.7c.3 1.6 1.9 1.8 15.8 1.8s15.5-.2 15.8-1.8c.3-1.6-1-1.7-15.8-1.7s-16.1.1-15.8 1.7zM454.3 264.5c-1.1 3.1 1.3 3.6 16.3 3.3 14.1-.3 14.9-.4 14.9-2.3s-.8-2-15.3-2.3c-13.2-.2-15.3 0-15.9 1.3zM494.3 264.5c-.3.9-.1 2.1.4 2.6s9.2.8 20.9.7c19.1-.3 19.9-.4 19.9-2.3s-.8-2-20.3-2.3c-17.7-.2-20.3 0-20.9 1.3zM454.3 276.6c-1 2.6 1.7 3.4 11.7 3.4s12.7-.8 11.7-3.4c-.5-1.3-2.5-1.6-11.7-1.6s-11.2.3-11.7 1.6zM616.5 238.1c-5.3 4.7-5.7 7.5-5.3 40.3.3 32.3.4 32.5 7.1 36.6 3.1 1.9 5.5 2 65.5 2 68.6 0 65.7.3 70.4-6.2 2.3-3.2 2.3-3.8 2.6-32.5.2-18.5-.1-30.6-.8-33.1-.6-2.5-2.4-5.2-4.5-7.1l-3.6-3.1H620.1l-3.6 3.1zm133.1 4.2l2.4 2.8v30.1c0 33.8-.2 34.9-7 36.9-2.2.6-23.5.9-59 .7l-55.5-.3-.3-35.5c-.1-19.5 0-36.1.3-36.8.4-1 12.1-1.2 58.6-1l58.1.3 2.4 2.8z"/><path d="M643.1 251.9c-.8.5-1.1 1.6-.8 2.5.6 1.4 3.3 1.6 21.6 1.6 17.5 0 21-.2 21.5-1.5.3-.8-.3-1.9-1.4-2.5-2.3-1.2-38.9-1.3-40.9-.1zM693.2 253.7c.3 1.6 1.9 1.8 15.8 1.8s15.5-.2 15.8-1.8c.3-1.6-1-1.7-15.8-1.7s-16.1.1-15.8 1.7zM642.3 264.5c-1.1 3.1 1.3 3.6 16.3 3.3 14.1-.3 14.9-.4 14.9-2.3s-.8-2-15.3-2.3c-13.2-.2-15.3 0-15.9 1.3zM682.3 264.5c-.3.9-.1 2.1.4 2.6s9.2.8 20.9.7c19.1-.3 19.9-.4 19.9-2.3s-.8-2-20.3-2.3c-17.7-.2-20.3 0-20.9 1.3zM642.3 276.6c-1 2.6 1.7 3.4 12.3 3.4 7.2 0 10.5-.4 11.3-1.3 2.2-2.7-.9-3.7-12.1-3.7-9 0-11 .3-11.5 1.6zM201.6 326.4c-5.4 2-8.5 4.5-12.1 9.5l-3 4.3-.3 75.7-.2 75.7 2.3 4.5c4.7 8.9 15.2 13.8 24.9 11.8 6-1.3 10.5-4.3 14.3-9.8l3-4.3.3-74.6c.2-52 0-75.8-.8-78.5-3.2-11-17.7-18.2-28.4-14.3zM431.3 337.9c-2.9 1.4-4.8 3.1-6.2 6-2 3.8-2.1 5.7-2.1 33.7 0 32.8.3 34.3 6.4 38.7l3.1 2.2H496c60.7 0 63.6-.1 66.3-1.9 5.6-3.8 5.7-4.7 5.7-39.1 0-35 0-35.3-6.4-39.1-2.9-1.8-6.4-1.9-64.6-2.1-58.8-.3-61.7-.2-65.7 1.6zm129.8 6l2.9 2.9v61l-2.6 3.1-2.6 3.1H442v-73h116.2l2.9 2.9z"/><path d="M454.3 354.6c-.3.9 0 2 .8 2.5s10.2.9 21 .9c19.6 0 22.4-.5 21.2-3.6-.4-1.1-4.6-1.4-21.4-1.4-18.3 0-21 .2-21.6 1.6zM505.3 354.6c-1.1 2.8 1.9 3.4 16.7 3.1 13.8-.2 14.5-.3 14.5-2.2 0-1.9-.8-2-15.3-2.3-13.3-.2-15.3 0-15.9 1.4zM454.3 366.6c-1.1 2.8 1.9 3.4 16.7 3.1 13.8-.2 14.5-.3 14.5-2.2 0-1.9-.8-2-15.3-2.3-13.3-.2-15.3 0-15.9 1.4zM494.4 366.5c-.3.8-.3 1.9.1 2.5.8 1.3 38.4 1.4 40.4.1.8-.5 1.1-1.6.8-2.5-.6-1.4-3.2-1.6-20.7-1.6-16.6 0-20.2.2-20.6 1.5zM454.7 377.7c-.4.3-.7 1.2-.7 2 0 1 2.7 1.3 12 1.3 11.3 0 12-.1 12-2s-.7-2-11.3-2c-6.3 0-11.7.3-12 .7zM619.3 337.9c-7.7 3.5-7.8 4.2-7.8 39.6 0 27.8.2 31.3 1.8 34.2 3.9 7.2 0 6.8 70.7 6.8h63.5l3.2-2.3c6-4.3 6.5-7.3 6.1-40.2-.3-33.6-.5-34.2-8.1-37.9-4.3-2.1-5.4-2.1-64.8-2.1-57.2 0-60.6.1-64.6 1.9zm129.8 6l2.9 2.9v61l-2.6 3.1-2.6 3.1H632v-73h114.2l2.9 2.9z"/><path d="M643.5 354c-.4.6-.1 1.7.5 2.5 1 1.2 4.9 1.5 20.9 1.5 10.8 0 20.2-.4 21-.9.8-.5 1.1-1.6.8-2.5-.6-1.4-3.3-1.6-21.6-1.6-13.5 0-21.2.4-21.6 1zM694.3 354.6c-1 2.8 1.8 3.4 16.3 3.4 10.5 0 14.4-.3 15.3-1.3 2.4-2.9-.9-3.7-16.1-3.7-12.7 0-15 .2-15.5 1.6zM643.5 366c-.4.6-.1 1.7.5 2.5 1.7 2.1 29.2 2.2 30.9.2.8-1 .7-1.7-.1-2.5-1.6-1.6-30.4-1.7-31.3-.2zM683.3 366.6c-.3.9 0 2 .8 2.5s10.2.8 20.9.6c18.8-.2 19.5-.3 19.5-2.2 0-1.9-.8-2-20.3-2.3-17.9-.2-20.3-.1-20.9 1.4zM643.5 378.1c-1.5 2.3 1.5 3 12.6 2.7 9.3-.2 11.4-.6 11.4-1.8 0-1.2-2.1-1.6-11.7-1.8-7.8-.2-11.9.1-12.3.9zM619 439.8c-1.9.9-4.3 3.3-5.5 5.2-1.9 3.2-2 5.5-2.3 31-.2 15.1-.1 29.4.3 31.8.9 6.3 5.3 10.8 11.8 12.2 3.6.8 23.1 1 64.2.8 56.7-.3 59.1-.4 62.3-2.3 1.8-1.1 4.1-3.8 5.2-6 1.9-3.8 2-6.3 2-33.1 0-28.1-.1-29.1-2.2-33.4-4.4-8.4-1-8-70.8-8-56.6 0-61.8.1-65 1.8zm128.6 4c.5.4 1.8 1.8 2.7 3.2 1.5 2.2 1.7 5.9 1.7 32.8v30.4l-2.9 2.9-2.9 2.9H630v-73h58.3c32 0 58.7.4 59.3.8z"/><path d="M643.5 456.1c-1.6 2.5 1.9 2.9 22.1 2.7 17.8-.3 20.9-.5 20.9-1.8s-3.1-1.5-21.2-1.8c-14.7-.2-21.4.1-21.8.9zM694.5 456c-1.5 2.5 1.3 3 15.9 3 8.4 0 15.5-.3 15.9-.6.3-.3.3-1.2 0-2-.4-1.1-3.6-1.4-15.8-1.4-9.2 0-15.6.4-16 1zM643.5 468.1c-1.6 2.4 1.7 2.9 16.6 2.7 12.9-.3 15.4-.5 15.4-1.8s-2.5-1.5-15.7-1.8c-10.7-.2-15.9.1-16.3.9zM683.2 468.7c.3 1.6 2.2 1.8 21.1 2.1 20.2.2 20.7.2 20.7-1.8 0-1.9-.6-2-21.1-2-19.5 0-21 .1-20.7 1.7zM643.5 480.1c-1.5 2.3 1.5 3 12.6 2.7 9.3-.2 11.4-.6 11.4-1.8 0-1.2-2.1-1.6-11.7-1.8-7.8-.2-11.9.1-12.3.9zM404 760.5V914h5V607h-5v153.5zM587 760.5V914h5V607h-5v153.5zM248.6 620c-6.3 4.1-6.5 5.4-6.6 38.5 0 33.5.2 34.8 6.9 39.2l3.4 2.3h62.6c60.3 0 62.7-.1 65.8-2 6.4-3.8 6.8-5.7 7.1-34 .2-14 .1-28.4-.3-32-.6-5.7-1.1-6.9-4.5-10.2l-3.8-3.8h-63.8c-61.6 0-64 .1-66.8 2zm132 5.5l2.4 3V689l-2.9 3.2-2.9 3.3H261.5l-.3-35.5c-.1-19.5 0-36.1.3-36.8.4-1 12.1-1.2 58.6-1l58.1.3 2.4 3z"/><path d="M274.1 634.9c-.8.5-1.1 1.6-.8 2.5.6 1.4 3.3 1.6 21.6 1.6 17.5 0 21-.2 21.5-1.5.3-.8-.3-1.9-1.4-2.5-2.3-1.2-38.9-1.3-40.9-.1zM324.2 636.7c.3 1.6 1.9 1.8 15.8 1.8s15.5-.2 15.8-1.8c.3-1.6-1-1.7-15.8-1.7s-16.1.1-15.8 1.7zM273.3 647.5c-1.1 3.1 1.3 3.6 16.3 3.3 14.1-.3 14.9-.4 14.9-2.3s-.8-2-15.3-2.3c-13.2-.2-15.3 0-15.9 1.3zM313.3 647.5c-.3.9-.1 2.1.4 2.6s9.2.8 20.9.7c19.1-.3 19.9-.4 19.9-2.3s-.8-2-20.3-2.3c-17.7-.2-20.3 0-20.9 1.3zM273.3 659.6c-1 2.6 1.7 3.4 11.7 3.4s12.7-.8 11.7-3.4c-.5-1.3-2.5-1.6-11.7-1.6s-11.2.3-11.7 1.6zM429.7 619.8c-1.5.9-3.6 3.5-4.7 5.8-1.9 3.7-2 6.2-2 33.5 0 32.8.2 34.2 6.9 38.6l3.4 2.3h62.6c60.3 0 62.7-.1 65.8-2 6.2-3.7 6.3-4.5 6.3-40.1v-32.1l-3.9-3.9-3.9-3.9h-63.8c-58.7.1-64.1.2-66.7 1.8zm131.9 5.7l2.4 3V689l-2.9 3.2-2.9 3.3H442.5l-.3-35.5c-.1-19.5 0-36.1.3-36.8.4-1 12.1-1.2 58.6-1l58.1.3 2.4 3z"/><path d="M454.2 636.7c.3 1.7 2.1 1.8 21.8 1.8 18.4 0 21.5-.2 21.5-1.5s-3.2-1.5-21.8-1.8c-20.5-.2-21.8-.1-21.5 1.5zM505.2 636.7c.3 1.6 1.9 1.8 15.8 1.8s15.5-.2 15.8-1.8c.3-1.6-1-1.7-15.8-1.7s-16.1.1-15.8 1.7zM454.3 647.5c-1.1 3.1 1.3 3.6 16.3 3.3 14.1-.3 14.9-.4 14.9-2.3s-.8-2-15.3-2.3c-13.2-.2-15.3 0-15.9 1.3zM494.3 647.5c-.3.9-.1 2.1.4 2.6s9.2.8 20.9.7c19.1-.3 19.9-.4 19.9-2.3s-.8-2-20.3-2.3c-17.7-.2-20.3 0-20.9 1.3zM454.3 659.6c-1 2.6 1.7 3.4 11.7 3.4s12.7-.8 11.7-3.4c-.5-1.3-2.5-1.6-11.7-1.6s-11.2.3-11.7 1.6zM616.5 621.1c-5.3 4.7-5.7 7.5-5.3 40.3.3 32.3.4 32.5 7.1 36.6 3.1 1.9 5.5 2 65.5 2 68.6 0 65.7.3 70.4-6.2 2.3-3.2 2.3-3.8 2.6-32.5.2-18.5-.1-30.6-.8-33.1-.6-2.5-2.4-5.2-4.5-7.1l-3.6-3.1H620.1l-3.6 3.1zm133.1 4.2l2.4 2.8v30.1c0 33.8-.2 34.9-7 36.9-2.2.6-23.5.9-59 .7l-55.5-.3-.3-35.5c-.1-19.5 0-36.1.3-36.8.4-1 12.1-1.2 58.6-1l58.1.3 2.4 2.8z"/><path d="M643.1 634.9c-.8.5-1.1 1.6-.8 2.5.6 1.4 3.3 1.6 21.6 1.6 17.5 0 21-.2 21.5-1.5.3-.8-.3-1.9-1.4-2.5-2.3-1.2-38.9-1.3-40.9-.1zM693.2 636.7c.3 1.6 1.9 1.8 15.8 1.8s15.5-.2 15.8-1.8c.3-1.6-1-1.7-15.8-1.7s-16.1.1-15.8 1.7zM642.3 647.5c-1.1 3.1 1.3 3.6 16.3 3.3 14.1-.3 14.9-.4 14.9-2.3s-.8-2-15.3-2.3c-13.2-.2-15.3 0-15.9 1.3zM682.3 647.5c-.3.9-.1 2.1.4 2.6s9.2.8 20.9.7c19.1-.3 19.9-.4 19.9-2.3s-.8-2-20.3-2.3c-17.7-.2-20.3 0-20.9 1.3zM642.3 659.6c-1 2.6 1.7 3.4 12.3 3.4 7.2 0 10.5-.4 11.3-1.3 2.2-2.7-.9-3.7-12.1-3.7-9 0-11 .3-11.5 1.6zM431.3 720.9c-2.9 1.4-4.8 3.1-6.2 6-2 3.8-2.1 5.7-2.1 33.7 0 32.8.3 34.3 6.4 38.7l3.1 2.2H496c60.7 0 63.6-.1 66.3-1.9 5.6-3.8 5.7-4.7 5.7-39.1 0-35 0-35.3-6.4-39.1-2.9-1.8-6.4-1.9-64.6-2.1-58.8-.3-61.7-.2-65.7 1.6zm129.8 6l2.9 2.9v61l-2.6 3.1-2.6 3.1H442v-73h116.2l2.9 2.9z"/><path d="M454.3 737.6c-.3.9 0 2 .8 2.5s10.2.9 21 .9c19.6 0 22.4-.5 21.2-3.6-.4-1.1-4.6-1.4-21.4-1.4-18.3 0-21 .2-21.6 1.6zM505.3 737.6c-1.1 2.8 1.9 3.4 16.7 3.1 13.8-.2 14.5-.3 14.5-2.2 0-1.9-.8-2-15.3-2.3-13.3-.2-15.3 0-15.9 1.4zM454.3 749.6c-1.1 2.8 1.9 3.4 16.7 3.1 13.8-.2 14.5-.3 14.5-2.2 0-1.9-.8-2-15.3-2.3-13.3-.2-15.3 0-15.9 1.4zM494.4 749.5c-.3.8-.3 1.9.1 2.5.8 1.3 38.4 1.4 40.4.1.8-.5 1.1-1.6.8-2.5-.6-1.4-3.2-1.6-20.7-1.6-16.6 0-20.2.2-20.6 1.5zM454.7 760.7c-.4.3-.7 1.2-.7 2 0 1 2.7 1.3 12 1.3 11.3 0 12-.1 12-2s-.7-2-11.3-2c-6.3 0-11.7.3-12 .7zM619.3 720.9c-7.7 3.5-7.8 4.2-7.8 39.6 0 27.8.2 31.3 1.8 34.2 3.9 7.2 0 6.8 70.7 6.8h63.5l3.2-2.3c6-4.3 6.5-7.3 6.1-40.2-.3-33.6-.5-34.2-8.1-37.9-4.3-2.1-5.4-2.1-64.8-2.1-57.2 0-60.6.1-64.6 1.9zm129.8 6l2.9 2.9v61l-2.6 3.1-2.6 3.1H632v-73h114.2l2.9 2.9z"/><path d="M643.5 737c-.4.6-.1 1.7.5 2.5 1 1.2 4.9 1.5 20.9 1.5 10.8 0 20.2-.4 21-.9.8-.5 1.1-1.6.8-2.5-.6-1.4-3.3-1.6-21.6-1.6-13.5 0-21.2.4-21.6 1zM694.3 737.6c-1 2.8 1.8 3.4 16.3 3.4 10.5 0 14.4-.3 15.3-1.3 2.4-2.9-.9-3.7-16.1-3.7-12.7 0-15 .2-15.5 1.6zM643.5 749c-.4.6-.1 1.7.5 2.5 1.7 2.1 29.2 2.2 30.9.2.8-1 .7-1.7-.1-2.5-1.6-1.6-30.4-1.7-31.3-.2zM683.3 749.6c-.3.9 0 2 .8 2.5s10.2.8 20.9.6c18.8-.2 19.5-.3 19.5-2.2 0-1.9-.8-2-20.3-2.3-17.9-.2-20.3-.1-20.9 1.4zM643.5 761.1c-1.5 2.3 1.5 3 12.6 2.7 9.3-.2 11.4-.6 11.4-1.8 0-1.2-2.1-1.6-11.7-1.8-7.8-.2-11.9.1-12.3.9zM619 822.8c-1.9.9-4.3 3.3-5.5 5.2-1.9 3.2-2 5.5-2.3 31-.2 15.1-.1 29.4.3 31.8.9 6.3 5.3 10.8 11.8 12.2 3.6.8 23.1 1 64.2.8 56.7-.3 59.1-.4 62.3-2.3 1.8-1.1 4.1-3.8 5.2-6 1.9-3.8 2-6.3 2-33.1 0-28.1-.1-29.1-2.2-33.4-4.4-8.4-1-8-70.8-8-56.6 0-61.8.1-65 1.8zm128.6 4c.5.4 1.8 1.8 2.7 3.2 1.5 2.2 1.7 5.9 1.7 32.8v30.4l-2.9 2.9-2.9 2.9H630v-73h58.3c32 0 58.7.4 59.3.8z"/><path d="M643.5 839.1c-1.6 2.5 1.9 2.9 22.1 2.7 17.8-.3 20.9-.5 20.9-1.8s-3.1-1.5-21.2-1.8c-14.7-.2-21.4.1-21.8.9zM694.5 839c-1.5 2.5 1.3 3 15.9 3 8.4 0 15.5-.3 15.9-.6.3-.3.3-1.2 0-2-.4-1.1-3.6-1.4-15.8-1.4-9.2 0-15.6.4-16 1zM643.5 851.1c-1.6 2.4 1.7 2.9 16.6 2.7 12.9-.3 15.4-.5 15.4-1.8s-2.5-1.5-15.7-1.8c-10.7-.2-15.9.1-16.3.9zM683.2 851.7c.3 1.6 2.2 1.8 21.1 2.1 20.2.2 20.7.2 20.7-1.8 0-1.9-.6-2-21.1-2-19.5 0-21 .1-20.7 1.7zM643.5 863.1c-1.5 2.3 1.5 3 12.6 2.7 9.3-.2 11.4-.6 11.4-1.8 0-1.2-2.1-1.6-11.7-1.8-7.8-.2-11.9.1-12.3.9z"/></svg>